<svg width="106" height="86" fill="none" xmlns="http://www.w3.org/2000/svg"><path fill-rule="evenodd" clip-rule="evenodd" d="M67.5 34C56.73 34 48 42.73 48 53.5c-1.11-.33-2.29-.5-3.5-.5C37.6 53 32 58.6 32 65.5c0 1.38.22 2.71.64 3.95-.83-.29-1.71-.45-2.64-.45-4.42 0-8 3.58-8 8s3.58 8 8 8h57.5c.17 0 .33 0 .5-.01 8.88-.26 16-7.551 16-16.49 0-9.11-7.39-16.5-16.5-16.5-.19 0-.37 0-.56.01C86.18 41.93 77.77 34 67.5 34m0 5c7.539 0 13.888 5.88 14.454 13.386.198 2.62 2.384 4.624 4.982 4.624.088 0 .177-.002.267-.007.055-.003.108-.003.161-.003h.136C93.841 57 99 62.159 99 68.5c0 6.262-4.896 11.309-11.146 11.492-.049.001-.096.004-.145.006-.034.002-.067.002-.1.002H30c-1.654 0-3-1.346-3-3s1.346-3 3-3c.339 0 .663.056.991.17.539.188 1.096.28 1.648.28 1.297 0 2.568-.505 3.52-1.448 1.358-1.345 1.83-3.346 1.216-5.156C37.126 67.109 37 66.32 37 65.5c0-4.136 3.364-7.5 7.5-7.5.724 0 1.422.099 2.075.293.468.139.947.207 1.425.207 1.064 0 2.116-.341 2.989-.992C52.255 56.564 53 55.078 53 53.5 53 45.505 59.505 39 67.5 39" fill="#fff"/><path d="M30.015 56.6162c-6.803-3.192-11.515-10.104-11.515-18.116 0-11.046 8.954-20 20-20 8.285 0 15.392 5.037 18.429 12.215M38.5 10.5v-7M3.5 38.5h7M24.5 14.251L21 8.189M14.2515 24.5L8.18945 21M52.5 14.251L56 8.189M19 66.8105l3.5-6.062M62.748 24.5L68.81 21M8.18945 56l6.06205-3.5" stroke="#fff" stroke-width="5" stroke-linecap="round"/></svg>