<svg width="106" height="86" fill="none" xmlns="http://www.w3.org/2000/svg"><path fill-rule="evenodd" clip-rule="evenodd" d="M57.5 17C46.73 17 38 25.73 38 36.5c-1.11-.33-2.29-.5-3.5-.5C27.6 36 22 41.6 22 48.5c0 1.38.22 2.71.64 3.95-.83-.29-1.71-.45-2.64-.45-4.42 0-8 3.58-8 8s3.58 8 8 8h57.5c.17 0 .33 0 .5-.01 8.88-.26 16-7.551 16-16.49C94 42.39 86.61 35 77.5 35c-.19 0-.37 0-.56.01C76.18 24.93 67.77 17 57.5 17m0 5c7.539 0 13.888 5.88 14.454 13.386.198 2.62 2.384 4.624 4.982 4.624.088 0 .177-.002.267-.007.055-.003.108-.003.161-.003h.136C83.841 40 89 45.159 89 51.5c0 6.262-4.896 11.309-11.146 11.492-.049.001-.096.004-.145.006-.034.002-.067.002-.1.002H20c-1.654 0-3-1.346-3-3s1.346-3 3-3c.339 0 .663.056.991.17.539.188 1.096.28 1.648.28 1.297 0 2.568-.505 3.52-1.448 1.358-1.345 1.83-3.346 1.216-5.156C27.126 50.109 27 49.32 27 48.5c0-4.136 3.364-7.5 7.5-7.5.724 0 1.422.099 2.075.293.468.139.947.207 1.425.207 1.064 0 2.116-.341 2.989-.992C42.255 39.564 43 38.078 43 36.5 43 28.505 49.505 22 57.5 22" fill="#fff"/></svg>