<svg xmlns="http://www.w3.org/2000/svg" width="106" height="86" fill="none"><path fill-rule="evenodd" clip-rule="evenodd" d="M57.5 9C46.73 9 38 17.73 38 28.5c-1.11-.33-2.29-.5-3.5-.5C27.6 28 22 33.6 22 40.5c0 1.38.22 2.71.64 3.95-.83-.29-1.71-.45-2.64-.45-4.42 0-8 3.58-8 8s3.58 8 8 8h57.5c.17 0 .33 0 .5-.01 8.88-.26 16-7.551 16-16.49C94 34.39 86.61 27 77.5 27c-.19 0-.37 0-.56.01C76.18 16.93 67.77 9 57.5 9m0 5c7.539 0 13.888 5.88 14.454 13.386.198 2.62 2.384 4.624 4.982 4.624.088 0 .177-.002.267-.007.055-.003.108-.003.161-.003h.136C83.841 32 89 37.159 89 43.5c0 6.262-4.896 11.309-11.146 11.492-.049.001-.096.004-.145.006-.034.002-.067.002-.1.002H20c-1.654 0-3-1.346-3-3s1.346-3 3-3c.339 0 .663.056.991.17.539.188 1.096.28 1.648.28 1.297 0 2.568-.505 3.52-1.448 1.358-1.345 1.83-3.346 1.216-5.156C27.126 42.109 27 41.32 27 40.5c0-4.136 3.364-7.5 7.5-7.5.724 0 1.422.099 2.075.293.468.139.947.207 1.425.207 1.064 0 2.116-.341 2.989-.992C42.255 31.564 43 30.078 43 28.5 43 20.505 49.505 14 57.5 14" fill="#fff"/><path d="M39 67L28 78M54 67L43 78M69 67L58 78" stroke="#fff" stroke-width="5" stroke-linecap="round" stroke-linejoin="round"/></svg>