<svg width="106" height="86" fill="none" xmlns="http://www.w3.org/2000/svg"><path clip-rule="evenodd" d="M73 43c0 11.046-8.954 20-20 20s-20-8.954-20-20 8.954-20 20-20 20 8.954 20 20z" stroke="#fff" stroke-width="5" stroke-linecap="round"/><path d="M53 15V8M53 78v-7M81 43h7M18 43h7M39 18.751l-3.5-6.062M70.5 73.3105l-3.5-6.062M28.7515 29l-6.062-3.5M83.311 60.5L77.249 57M67 18.751l3.5-6.062M35.5 73.3105l3.5-6.062M77.248 29l6.062-3.5M22.6895 60.5l6.062-3.5" stroke="#fff" stroke-width="5" stroke-linecap="round"/></svg>