<svg xmlns="http://www.w3.org/2000/svg" width="164" height="87" fill="none"><g opacity=".43" stroke="#3CB6CE" stroke-width=".9" stroke-linecap="round" stroke-linejoin="round"><path d="M87.607 70.158c13.381-18.316 39.155-22.335 57.484-8.955a41.085 41.085 0 0 1 15.329 22.102c-17.257 16.123-44.052 18.257-63.837 3.814a50.382 50.382 0 0 1-11.912-12.3 40.994 40.994 0 0 1 2.936-4.66M157.376 85.778l-6.208-7.399M154.121 88.395l-11.633-13.863M150.362 90.413l-15.764-18.787M146.611 92.44l-19.295-22.994M142.462 93.992l-21.826-26.01M138.126 95.323l-23.588-28.111M133.442 96.238 108.86 66.942M128.388 96.712 103.666 67.25M122.916 96.687l-24.05-28.66M116.864 95.972l-22.31-26.587M109.769 94.014 90.474 71.019M100.934 89.983 86.726 73.05"/><path d="M160.42 83.305s-3.813-2.329-9.88-5.23c-15.838-7.575-47.034-19.06-65.868-3.256M86.955 73.166l8.357-10.984M90.549 70.927l8.85-11.6M94.467 69.28l9.603-12.374M98.908 67.912l9.646-12.651M103.866 67.06l10.008-13.132M109.092 66.93l10.298-13.575M114.757 67.242l10.442-13.69M121.006 68.009l10.243-13.449M127.702 69.55l11.733-11.652M134.929 71.724l11.941-9.16M143.001 74.744l10.823-4.84M151.44 78.603l6.138-2.195"/></g><g opacity=".43" stroke="#3CB6CE" stroke-linecap="round" stroke-linejoin="round"><path d="M64.513 98.193c5.767-2.219 10.64-6.741 13.117-12.918 4.353-10.888-.218-23.166-10.251-28.695a30.781 30.781 0 0 0-7.43 10.942c-4.265 10.663-2.141 22.3 4.564 30.67"/><path d="M64.513 98.193C75.091 83.087 67.38 56.58 67.38 56.58"/></g><g opacity=".43" stroke="#3CB6CE" stroke-linecap="round" stroke-linejoin="round"><path d="M15.69 1.144c3.8 4.872 5.65 11.258 4.59 17.829C18.405 30.547 8.163 38.717-3.284 38.289a30.782 30.782 0 0 1-.734-13.207c1.837-11.336 9.65-20.217 19.71-23.938"/><path d="M15.69 1.144C16.977 19.54-3.285 38.289-3.285 38.289"/></g><g opacity=".43" stroke="#3CB6CE" stroke-linecap="round" stroke-linejoin="round"><path d="M51.652 33.335c-24.471-6.033-49.28 8.954-55.324 33.433a45.652 45.652 0 0 0 2.738 29.76c26.203 1.399 50.535-15.922 57.06-42.346a55.98 55.98 0 0 0 1.354-18.977 45.545 45.545 0 0 0-5.828-1.87M3.423 96.459V85.728M8.063 96.362V76.253M12.704 95.395v-27.25M17.344 94.442V61.09M21.984 92.799V55.07M26.625 90.835V50.06M31.265 88.269V45.776M35.906 85.062V42.329M40.546 81.133v-41.57M45.187 76.202V37.638M49.827 69.468V36.115M54.468 59.726v-24.56"/><path d="M-.934 96.529s1.582-4.706 4.674-11.51c8.07-17.758 26.421-49.813 53.74-49.813M54.355 35.43l-14.958-3.381M49.697 36.09 33.88 32.537M45.187 37.487l-17.012-3.674M40.428 39.493l-17.245-3.878M35.6 42.31l-17.897-4.03M31.059 45.931l-18.46-4.199M26.46 50.243 7.794 46.049M21.69 55.359 3.365 51.228M17.09 61.452l-18.308-1.536M12.492 68.465l-16.706.731M7.778 76.8l-12.67 3.61M3.352 86.112l-6.793 2.516"/></g></svg>