<svg xmlns="http://www.w3.org/2000/svg" width="130" height="82" fill="none"><g opacity=".43" stroke="#3CB6CE" stroke-linecap="round" stroke-linejoin="round"><path d="M6.601 8.884c19.902 15.464 48.66 11.864 64.14-8.04a45.652 45.652 0 0 0 9.603-28.302c-23.37-11.935-52.642-6.009-69.35 15.478A55.982 55.982 0 0 0 2.037 4.805a45.534 45.534 0 0 0 4.563 4.079M57.89-33.373 42.545 1.093M52.852-33.465 36.267 3.783M47.569-33.01 30.286 5.81M42.025-31.967 24.644 7.072M36.188-30.265 19.28 7.712M29.943-27.648 14.258 7.582M22.965-23.383 9.399 7.087M14.764-16.372 4.774 6.066"/><path d="M80.344-27.458s-3.36 3.655-8.951 8.613C56.797-5.905 26.995 15.915 2.038 4.805M4.984 5.871l12.29 9.172M9.507 7.162l13.005 9.68M14.196 7.72l14.047 10.276M19.36 7.823 33.535 18.38M24.916 7.213l14.71 10.962M30.537 5.752l15.157 11.344M36.492 3.684l15.346 11.423M42.931.95l15.06 11.227M49.611-2.745l16.1 8.85M56.664-7.281l15.56 6.127"/></g><g opacity=".43" stroke="#3CB6CE" stroke-linecap="round" stroke-linejoin="round"><path d="M120.636 80.68c-4.05-4.666-6.23-10.947-5.517-17.564 1.268-11.656 11.069-20.351 22.523-20.523a30.773 30.773 0 0 1 1.424 13.15c-1.241 11.417-8.579 20.695-18.43 24.937"/><path d="M120.636 80.68c-2.247-18.303 17.006-38.087 17.006-38.087"/></g><g opacity=".43" stroke="#3CB6CE" stroke-linecap="round" stroke-linejoin="round"><path d="M127.652-7.665c-24.471-6.033-49.28 8.954-55.324 33.433a45.653 45.653 0 0 0 2.738 29.76c26.203 1.399 50.535-15.922 57.059-42.346a55.991 55.991 0 0 0 1.355-18.977 45.549 45.549 0 0 0-5.828-1.87M79.423 55.459V44.727M84.063 55.362V35.253M88.704 54.395v-27.25M93.344 53.442V20.09M97.984 51.798V14.072M102.625 49.835V9.06M107.265 47.269V4.776M111.906 44.062V1.329M116.546 40.133v-41.57M121.187 35.202V-3.362M125.827 28.468V-4.885M130.467 18.726v-24.56"/><path d="M75.066 55.529s1.582-4.706 4.674-11.51c8.07-17.758 26.421-49.813 53.74-49.813M111.6 1.31 93.703-2.72M107.059 4.931 88.599.732M102.46 9.243 83.794 5.049M97.69 14.359l-18.324-4.131M93.09 20.452l-18.308-1.537M88.492 27.465l-16.707.731M83.778 35.8l-12.67 3.61M79.352 45.112l-6.793 2.516"/></g></svg>